<?xml version="1.0" standalone="no"?>
<!DOCTYPE svg PUBLIC "-//W3C//DTD SVG 20010904//EN"
 "http://www.w3.org/TR/2001/REC-SVG-20010904/DTD/svg10.dtd">
<svg version="1.0" xmlns="http://www.w3.org/2000/svg"
 width="300.000000pt" height="350.000000pt" viewBox="0 0 300.000000 350.000000"
 preserveAspectRatio="xMidYMid meet">
<metadata>
Created by potrace 1.10, written by Peter Selinger 2001-2011
</metadata>
<g transform="translate(0.000000,350.000000) scale(0.100000,-0.100000)"
fill="#000000" stroke="none">
<path d="M1459 3229 c-26 -26 -21 -57 14 -82 l27 -21 28 21 c34 25 39 56 13
82 -27 27 -55 27 -82 0z"/>
<path d="M1145 3201 c-7 -13 39 -134 53 -139 17 -5 15 16 -9 86 -20 59 -31 73
-44 53z"/>
<path d="M1681 3188 c-5 -14 -13 -42 -16 -62 -6 -28 -4 -36 8 -36 20 0 44 97
29 112 -8 8 -14 4 -21 -14z"/>
<path d="M1810 3148 c-13 -35 -25 -69 -28 -77 -3 -8 1 -12 13 -10 11 3 26 27
41 68 28 74 29 81 10 81 -7 0 -23 -27 -36 -62z"/>
<path d="M1290 3189 c0 -32 24 -99 36 -99 17 0 17 7 2 65 -7 25 -18 45 -25 45
-7 0 -13 -5 -13 -11z"/>
<path d="M954 3119 c-10 -17 13 -36 27 -22 12 12 4 33 -11 33 -5 0 -12 -5 -16
-11z"/>
<path d="M2020 3110 c0 -15 5 -20 18 -18 9 2 17 10 17 18 0 8 -8 16 -17 18
-13 2 -18 -3 -18 -18z"/>
<path d="M875 3031 c-6 -11 54 -101 67 -101 16 0 8 31 -18 70 -27 41 -38 48
-49 31z"/>
<path d="M1354 3029 c-196 -33 -395 -136 -542 -281 -354 -349 -407 -873 -129
-1283 124 -183 359 -345 587 -406 121 -32 338 -33 460 -1 161 42 373 164 481
279 111 116 210 290 251 443 20 73 23 109 23 255 0 203 -14 266 -100 440 -141
289 -405 490 -723 551 -80 15 -227 17 -308 3z m242 -80 c216 -30 405 -128 560
-290 77 -81 116 -140 165 -244 64 -136 82 -218 82 -380 1 -153 -16 -244 -68
-360 -27 -63 -103 -185 -114 -185 -3 0 -46 24 -96 53 l-90 53 -3 151 -3 152
-75 42 -76 41 41 25 41 24 0 104 0 103 -187 110 c-104 60 -206 120 -229 132
l-40 23 -232 -134 -232 -134 0 -102 0 -102 40 -23 c22 -13 40 -25 40 -28 0 -3
-33 -23 -72 -45 l-73 -40 -3 -150 -3 -150 -90 -50 c-50 -27 -95 -51 -99 -53
-13 -5 -100 143 -130 221 -168 431 35 932 465 1150 97 48 261 90 377 96 15 0
62 -4 104 -10z m127 -606 c111 -64 206 -119 210 -123 5 -4 -78 -58 -185 -120
-106 -62 -205 -122 -220 -132 l-27 -18 -221 131 -221 132 148 85 c81 46 180
104 218 128 39 23 76 41 83 38 8 -2 105 -57 215 -121z m-582 -223 c22 -12 97
-55 167 -96 70 -41 135 -79 144 -84 41 -23 79 -10 236 81 86 51 164 98 173
105 8 8 25 14 37 14 19 0 22 -6 22 -43 0 -52 -11 -64 -101 -111 -35 -18 -104
-57 -154 -86 -49 -29 -107 -62 -128 -73 l-38 -21 -54 29 c-30 17 -55 33 -55
37 0 5 -3 7 -7 6 -11 -3 -118 54 -173 91 -25 17 -50 31 -56 31 -7 0 -26 13
-43 29 -25 23 -31 37 -31 70 0 47 6 49 61 21z m788 -195 l71 -40 0 -151 c0
-146 -1 -151 -22 -161 -20 -9 -11 -16 90 -73 105 -59 128 -81 90 -88 -8 -2
-61 24 -117 58 -57 33 -112 60 -122 60 -19 0 -20 7 -18 108 1 85 -1 107 -12
107 -11 0 -14 -25 -15 -118 l0 -118 -57 -34 -57 -34 0 135 c0 104 -3 135 -12
132 -10 -3 -14 -43 -16 -143 -2 -117 -5 -140 -20 -151 -9 -7 -20 -14 -24 -14
-5 0 -8 61 -8 135 0 113 -2 135 -15 135 -13 0 -15 -23 -15 -144 l0 -144 -76
-46 -77 -46 -188 112 -188 113 0 150 -1 150 74 41 74 41 115 -67 115 -68 174
103 c95 57 176 102 180 101 3 0 38 -19 77 -41z m-729 15 c22 -11 40 -22 40
-24 0 -2 -34 -23 -75 -45 l-75 -42 0 -148 c0 -111 -3 -148 -12 -148 -7 0 -61
-28 -120 -62 -66 -38 -114 -61 -124 -57 -29 11 -8 30 101 90 96 53 106 61 87
69 -21 10 -22 16 -22 156 l1 146 72 41 c40 23 76 42 80 43 4 0 26 -8 47 -19z
m-460 -455 c13 -14 29 -25 35 -25 7 0 15 -14 19 -30 4 -22 15 -35 38 -44 28
-12 35 -12 57 4 43 30 68 34 74 10 3 -11 20 -26 38 -34 31 -13 31 -14 11 -25
-52 -28 -32 -76 53 -126 67 -39 90 -41 119 -11 15 14 26 22 26 17 0 -4 16 -16
35 -27 34 -18 34 -18 60 6 30 28 31 44 6 69 -11 11 -21 27 -23 36 -1 9 -19 27
-40 38 -32 19 -39 20 -62 8 -24 -13 -30 -11 -83 24 -55 37 -58 37 -85 22 -40
-23 -46 -1 -6 23 42 26 42 26 100 -11 35 -23 55 -29 73 -25 18 5 37 -1 66 -21
28 -18 43 -23 48 -15 4 7 30 -2 79 -29 40 -22 72 -43 72 -47 0 -4 -12 -18 -25
-31 -29 -27 -31 -38 -9 -69 17 -25 44 -28 74 -10 16 10 25 10 47 -4 25 -15 30
-15 68 0 22 8 57 26 77 39 47 29 56 29 51 -1 -4 -18 2 -29 20 -40 21 -14 31
-15 70 -4 25 6 44 15 41 19 -2 4 20 19 49 34 111 58 141 93 111 126 -10 11
-31 19 -48 19 -26 1 -29 2 -15 13 26 20 31 48 13 68 -10 11 -24 19 -33 19 -22
0 -92 -25 -87 -31 3 -2 -30 -22 -72 -44 -42 -22 -105 -57 -139 -77 -34 -21
-66 -38 -70 -38 -4 0 -19 -11 -33 -25 l-27 -26 -17 26 c-15 23 -15 25 0 25 18
0 97 41 102 53 2 4 10 7 17 7 7 0 27 11 43 25 17 14 34 25 40 25 5 0 22 10 38
22 15 12 34 23 41 24 18 3 98 50 117 69 13 13 19 14 38 3 13 -7 26 -17 30 -23
4 -5 8 -6 8 -1 0 5 9 1 21 -10 12 -10 24 -18 28 -18 11 2 51 -19 51 -28 0 -4
6 -8 13 -8 6 0 25 -7 40 -15 21 -11 34 -12 48 -5 24 14 40 45 33 64 -4 12 0
16 15 16 12 0 33 11 47 25 14 14 24 19 22 12 -9 -40 -150 -186 -242 -252 -35
-25 -66 -45 -70 -45 -4 0 -23 -11 -44 -24 -39 -25 -184 -76 -267 -95 -142 -32
-367 -8 -510 55 -17 7 -42 17 -57 23 -15 6 -46 23 -69 38 -23 15 -59 39 -80
53 -60 40 -181 160 -228 228 -26 38 -15 43 19 7z m401 -25 c72 -47 52 -54 -31
-12 -40 20 -53 32 -45 40 5 6 11 11 12 12 1 0 30 -18 64 -40z m817 -52 c-6
-16 -389 -239 -403 -234 -29 9 7 35 180 135 180 104 232 127 223 99z m-773
-89 c27 9 40 9 67 -3 19 -8 26 -15 16 -15 -10 -1 -27 -14 -39 -31 l-22 -29
-29 24 c-16 14 -33 25 -36 25 -4 1 -23 14 -42 31 l-35 31 44 -23 c38 -19 47
-21 76 -10z m-101 -34 c30 -19 62 -35 71 -35 19 0 20 -29 1 -36 -17 -7 -146
74 -146 92 0 21 15 17 74 -21z m924 24 c-5 -14 -217 -138 -235 -139 -37 0 -1
32 95 87 103 59 148 76 140 52z m-718 -54 c15 -18 6 -45 -13 -45 -8 0 -20 7
-27 15 -10 12 -10 18 0 30 16 19 24 19 40 0z m188 -49 c4 -21 -14 -37 -35 -29
-14 5 -18 35 -6 47 12 12 38 1 41 -18z"/>
<path d="M1441 2794 c-26 -22 -31 -33 -31 -70 0 -54 35 -94 82 -94 96 0 138
104 66 165 -38 32 -78 32 -117 -1z m94 -30 c36 -24 25 -77 -18 -93 -51 -19
-94 53 -54 90 25 23 40 24 72 3z"/>
<path d="M1371 2714 c-3 -147 187 -185 253 -51 15 31 16 45 8 70 l-10 32 -1
-43 c-1 -33 -8 -50 -35 -80 -31 -33 -39 -37 -85 -37 -67 0 -108 38 -120 111
l-9 49 -1 -51z"/>
<path d="M1881 2696 c-6 -7 -9 -21 -5 -30 8 -20 11 -20 30 -1 14 13 14 17 1
30 -13 12 -17 12 -26 1z"/>
<path d="M1091 2686 c-8 -10 -8 -16 3 -25 10 -9 16 -8 26 3 12 15 6 36 -9 36
-5 0 -14 -6 -20 -14z"/>
<path d="M1187 2575 c-8 -18 11 -31 25 -17 11 11 3 32 -12 32 -4 0 -10 -7 -13
-15z"/>
<path d="M1784 2516 c-7 -20 2 -46 16 -46 13 0 13 47 0 55 -6 3 -13 -1 -16 -9z"/>
<path d="M1190 2496 c0 -17 5 -26 16 -26 10 0 14 7 12 22 -5 32 -28 35 -28 4z"/>
<path d="M765 2455 c-57 -56 0 -149 79 -129 58 14 77 96 30 133 -36 28 -79 27
-109 -4z m94 -19 c21 -25 9 -69 -21 -80 -50 -17 -89 42 -52 78 19 20 58 21 73
2z"/>
<path d="M1007 2473 c-13 -12 -7 -43 8 -43 9 0 15 9 15 25 0 24 -10 32 -23 18z"/>
<path d="M1970 2445 c0 -16 6 -25 15 -25 9 0 15 9 15 25 0 16 -6 25 -15 25 -9
0 -15 -9 -15 -25z"/>
<path d="M1007 2393 c-4 -3 -7 -28 -7 -55 0 -36 4 -48 15 -48 12 0 15 13 15
55 0 51 -7 65 -23 48z"/>
<path d="M1970 2330 c0 -38 4 -50 15 -50 11 0 15 12 15 50 0 38 -4 50 -15 50
-11 0 -15 -12 -15 -50z"/>
<path d="M810 2020 c0 -213 3 -271 13 -267 9 3 12 65 12 267 0 202 -3 264 -12
268 -10 3 -13 -55 -13 -268z"/>
<path d="M2135 2265 c-27 -26 -31 -51 -14 -88 12 -26 47 -47 80 -47 33 0 69
44 69 84 0 68 -86 101 -135 51z m86 -15 c41 -23 16 -90 -35 -90 -20 0 -46 28
-46 50 0 22 26 50 46 50 9 0 24 -5 35 -10z"/>
<path d="M2164 2077 c-2 -7 -3 -82 -2 -167 2 -112 6 -154 16 -158 9 -3 12 35
12 167 0 111 -4 171 -10 171 -6 0 -13 -6 -16 -13z"/>
<path d="M662 2018 c-28 -28 -7 -78 33 -78 12 0 26 5 33 12 7 7 12 21 12 33 0
12 -5 26 -12 33 -7 7 -21 12 -33 12 -12 0 -26 -5 -33 -12z m47 -22 c9 -10 9
-16 1 -21 -17 -11 -40 3 -34 20 8 19 18 19 33 1z"/>
<path d="M2272 2018 c-7 -7 -12 -21 -12 -33 0 -12 5 -26 12 -33 7 -7 21 -12
33 -12 12 0 26 5 33 12 7 7 12 21 12 33 0 12 -5 26 -12 33 -7 7 -21 12 -33 12
-12 0 -26 -5 -33 -12z m52 -23 c3 -9 -1 -18 -10 -22 -19 -7 -28 2 -21 22 8 19
23 19 31 0z"/>
<path d="M686 1883 c-3 -3 -6 -42 -6 -85 0 -63 3 -78 15 -78 12 0 15 15 15 79
0 74 -7 100 -24 84z"/>
<path d="M2290 1801 c0 -65 3 -81 15 -81 12 0 15 14 15 70 0 39 0 73 1 78 0 4
-7 8 -15 10 -13 3 -16 -10 -16 -77z"/>
<path d="M780 1700 c-11 -11 -20 -33 -20 -48 0 -62 80 -85 119 -35 51 63 -41
141 -99 83z m64 -36 c8 -20 -1 -34 -20 -34 -20 0 -30 30 -13 41 20 12 26 11
33 -7z"/>
<path d="M2132 1704 c-28 -19 -30 -74 -4 -97 25 -22 75 -21 95 1 10 10 17 32
17 49 0 55 -59 81 -108 47z m64 -35 c3 -6 -1 -18 -10 -27 -15 -15 -18 -15 -26
-2 -5 9 -5 19 2 27 13 16 25 17 34 2z"/>
<path d="M1345 2291 c-66 -37 -121 -74 -123 -83 -2 -9 6 -22 18 -28 18 -10 36
-3 123 47 56 32 107 59 113 61 7 2 42 -15 78 -37 37 -23 71 -41 76 -41 30 0
11 -23 -50 -58 l-71 -41 -60 36 c-58 35 -63 36 -88 22 -39 -22 -34 -52 9 -60
19 -3 58 -20 87 -38 l52 -32 140 78 c113 63 140 82 141 100 0 28 -33 39 -61
20 -19 -14 -24 -13 -55 5 -33 19 -34 21 -18 39 14 15 14 21 4 34 -16 19 -44
19 -60 0 -10 -12 -19 -10 -64 15 -29 17 -57 30 -62 29 -5 0 -63 -31 -129 -68z"/>
<path d="M1676 1805 c-82 -47 -155 -90 -161 -95 -9 -7 -34 3 -86 35 -78 48
-89 52 -89 33 0 -7 35 -32 76 -56 l76 -43 -4 -56 c-2 -39 1 -58 10 -60 9 -4
12 12 12 55 l0 60 170 97 c156 90 191 115 158 115 -7 0 -80 -39 -162 -85z"/>
<path d="M1264 1739 c-10 -17 13 -36 27 -22 12 12 4 33 -11 33 -5 0 -12 -5
-16 -11z"/>
<path d="M1220 1626 l0 -54 50 -31 c28 -17 50 -38 50 -47 0 -9 6 -14 13 -11 6
2 12 9 11 15 -1 7 -2 46 -2 88 -2 56 -5 75 -14 71 -9 -3 -12 -22 -11 -56 1
-28 0 -51 -3 -51 -3 0 -19 9 -35 21 -25 17 -29 27 -29 65 0 32 -4 44 -15 44
-11 0 -15 -13 -15 -54z"/>
<path d="M1457 1498 c-26 -21 -31 -61 -10 -87 37 -45 113 -18 113 39 0 50 -62
78 -103 48z m56 -43 c8 -18 -11 -31 -25 -17 -11 11 -3 32 12 32 4 0 10 -7 13
-15z"/>
<path d="M2078 2999 c-31 -43 -35 -59 -15 -59 16 1 69 78 62 91 -10 16 -19 10
-47 -32z"/>
<path d="M994 3009 c-8 -14 11 -33 25 -25 6 4 11 14 11 22 0 16 -26 19 -36 3z"/>
<path d="M730 2989 c0 -21 103 -130 113 -120 11 11 10 12 -53 89 -33 40 -60
54 -60 31z"/>
<path d="M2197 2944 c-48 -58 -56 -74 -34 -74 14 0 107 103 107 119 0 25 -29
7 -73 -45z"/>
<path d="M566 2801 c-7 -11 101 -101 122 -101 27 0 9 30 -39 65 -61 44 -75 50
-83 36z"/>
<path d="M2311 2746 c-15 -18 -4 -46 19 -46 28 0 45 27 30 45 -16 19 -34 19
-49 1z"/>
<path d="M470 2667 c0 -16 107 -80 121 -72 14 9 -4 29 -56 60 -48 28 -65 31
-65 12z"/>
<path d="M2457 2643 c-40 -24 -55 -39 -48 -46 17 -17 139 52 126 72 -9 16 -14
14 -78 -26z"/>
<path d="M406 2552 c-13 -13 -4 -23 44 -47 57 -29 73 -31 68 -10 -3 17 -102
67 -112 57z"/>
<path d="M2503 2537 c-49 -20 -71 -47 -39 -47 25 0 117 43 113 53 -6 18 -20
17 -74 -6z"/>
<path d="M350 2368 c0 -19 119 -53 133 -39 12 12 -36 35 -95 46 -30 6 -38 4
-38 -7z"/>
<path d="M2568 2364 c-47 -14 -65 -28 -50 -38 15 -9 132 28 132 41 0 16 -22
16 -82 -3z"/>
<path d="M326 2292 c-8 -14 5 -22 67 -38 65 -17 67 -17 67 1 0 13 -18 20 -101
40 -15 4 -30 2 -33 -3z"/>
<path d="M2596 2285 c-87 -24 -86 -55 1 -34 61 15 85 27 78 40 -8 11 -18 11
-79 -6z"/>
<path d="M290 2127 c0 -9 16 -16 46 -21 66 -9 104 -8 104 3 0 15 -10 18 -82
26 -56 5 -68 4 -68 -8z"/>
<path d="M2625 2133 c-57 -5 -71 -11 -57 -25 15 -15 145 -1 139 15 -4 13 -24
16 -82 10z"/>
<path d="M300 2040 c-11 -11 -20 -27 -20 -35 0 -18 35 -55 53 -55 27 0 57 31
57 60 0 48 -54 66 -90 30z"/>
<path d="M2626 2044 c-33 -32 -10 -94 35 -94 23 0 59 34 59 55 0 21 -36 55
-59 55 -11 0 -27 -7 -35 -16z"/>
<path d="M420 1835 c-10 -12 -9 -16 5 -21 23 -9 40 10 22 25 -11 9 -17 8 -27
-4z"/>
<path d="M2546 1835 c-6 -17 16 -31 33 -21 13 9 2 36 -14 36 -7 0 -16 -7 -19
-15z"/>
<path d="M337 1824 c-14 -14 -7 -35 11 -32 9 2 17 10 17 17 0 16 -18 25 -28
15z"/>
<path d="M2635 1821 c-8 -15 3 -31 21 -31 9 0 14 7 12 17 -4 20 -24 28 -33 14z"/>
<path d="M447 1764 c-14 -14 -7 -35 11 -32 9 2 17 10 17 17 0 16 -18 25 -28
15z"/>
<path d="M2527 1764 c-14 -15 -6 -34 14 -34 14 0 19 5 17 17 -3 18 -20 27 -31
17z"/>
<path d="M367 1743 c-4 -3 -7 -12 -7 -20 0 -15 26 -18 34 -4 7 11 -18 33 -27
24z"/>
<path d="M2611 1736 c-12 -14 -5 -26 16 -26 15 0 18 26 4 34 -5 3 -14 0 -20
-8z"/>
<path d="M453 1643 c-23 -9 -14 -25 10 -18 31 10 45 25 22 24 -11 0 -26 -3
-32 -6z"/>
<path d="M2506 1641 c15 -14 54 -23 54 -13 0 11 -24 22 -48 22 -10 0 -12 -3
-6 -9z"/>
<path d="M2460 1567 c0 -7 16 -21 35 -30 23 -11 35 -24 35 -37 0 -24 29 -39
40 -20 14 23 -2 50 -45 75 -47 28 -65 31 -65 12z"/>
<path d="M430 1515 c-15 -18 -6 -45 13 -45 8 0 20 6 26 14 9 11 8 18 -4 30
-20 20 -20 20 -35 1z"/>
<path d="M532 1458 c-46 -26 -69 -58 -42 -58 15 0 110 61 110 70 0 20 -19 17
-68 -12z"/>
<path d="M2407 1483 c-13 -13 -7 -20 44 -52 29 -18 59 -29 67 -26 13 5 14 8 1
19 -25 24 -106 66 -112 59z"/>
<path d="M2350 1338 c1 -14 73 -68 90 -68 23 0 7 29 -28 54 -41 28 -62 33 -62
14z"/>
<path d="M704 1266 c-10 -26 4 -48 28 -44 17 2 23 10 23 28 0 18 -6 26 -23 28
-13 2 -25 -3 -28 -12z"/>
<path d="M2244 1266 c-10 -26 4 -48 28 -44 17 2 23 10 23 28 0 18 -6 26 -23
28 -13 2 -25 -3 -28 -12z"/>
<path d="M882 1121 c-8 -4 -12 -19 -10 -32 4 -29 45 -34 61 -7 19 30 -19 60
-51 39z"/>
<path d="M2070 1116 c-27 -33 18 -72 48 -42 13 13 14 20 6 34 -15 23 -38 26
-54 8z"/>
<path d="M1167 976 c-10 -26 4 -47 27 -44 15 2 21 10 21 28 0 29 -38 41 -48
16z"/>
<path d="M1784 975 c-9 -23 3 -45 25 -45 20 0 37 32 26 50 -9 15 -45 12 -51
-5z"/>
<path d="M1367 944 c-12 -13 -8 -52 7 -57 21 -8 49 16 44 39 -3 19 -38 31 -51
18z"/>
<path d="M1587 944 c-12 -13 -8 -52 7 -57 21 -8 49 16 44 39 -3 19 -38 31 -51
18z"/>
<path d="M665 480 l-1 -190 38 0 38 0 0 70 0 69 34 -20 c35 -20 35 -20 80 -1
50 23 71 50 81 104 19 103 -91 201 -158 141 -18 -17 -19 -17 -28 0 -7 11 -22
17 -47 17 l-37 0 0 -190z m177 103 c27 -24 24 -87 -4 -107 -48 -34 -98 -7 -98
52 0 63 58 95 102 55z"/>
<path d="M978 530 l3 -140 35 0 34 0 0 84 c0 80 1 86 27 106 21 16 37 20 60
17 33 -6 33 -5 33 34 0 37 -1 39 -33 39 -18 0 -43 -7 -55 -16 -20 -14 -23 -14
-28 0 -4 11 -19 16 -43 16 l-36 0 3 -140z"/>
<path d="M1270 640 c0 -30 1 -30 54 -30 45 0 58 -4 70 -22 26 -37 20 -53 -10
-29 -31 24 -80 27 -127 8 -41 -18 -57 -37 -64 -81 -5 -30 -1 -40 25 -66 33
-32 76 -39 126 -20 22 8 26 16 26 50 0 45 -12 51 -45 20 -26 -24 -55 -17 -55
12 0 46 81 65 116 27 10 -11 21 -41 24 -67 5 -44 7 -47 38 -50 l32 -3 0 111
c0 110 0 112 -29 141 -27 27 -35 29 -105 29 l-76 0 0 -30z"/>
<path d="M1530 530 l0 -140 35 0 35 0 0 80 c0 73 3 83 25 105 59 60 99 6 93
-125 l-3 -55 38 -3 37 -3 0 96 c0 138 -25 185 -97 185 -16 0 -38 -7 -49 -15
-25 -19 -34 -19 -34 0 0 11 -11 15 -40 15 l-40 0 0 -140z m62 62 c-14 -22 -17
-23 -20 -8 -5 27 6 46 22 40 13 -5 13 -9 -2 -32z"/>
<path d="M1888 654 c-38 -20 -58 -64 -58 -127 0 -84 54 -137 139 -137 58 0 71
8 71 42 0 29 -1 30 -39 23 -39 -6 -101 14 -101 34 0 5 39 6 86 3 l87 -5 -5 63
c-4 55 -8 66 -36 91 -37 33 -98 39 -144 13z m94 -61 c33 -29 22 -43 -32 -43
-56 0 -67 17 -28 44 28 20 37 20 60 -1z"/>
<path d="M2155 650 c-67 -44 -86 -143 -39 -200 68 -80 160 -80 228 0 48 58 30
160 -37 200 -42 26 -113 26 -152 0z m128 -68 c24 -21 22 -77 -3 -102 -45 -45
-120 -11 -120 53 0 66 71 95 123 49z"/>
<path d="M2203 544 c-3 -8 2 -23 11 -32 15 -15 17 -15 32 0 21 21 11 48 -16
48 -11 0 -23 -7 -27 -16z"/>
<path d="M1280 315 c0 -8 7 -15 15 -15 11 0 15 -11 15 -40 0 -29 4 -40 15 -40
11 0 15 12 15 45 0 37 3 45 16 43 10 -2 19 3 21 10 3 8 -10 12 -46 12 -39 0
-51 -4 -51 -15z"/>
<path d="M1400 275 l0 -55 40 0 c22 0 40 5 40 10 0 6 -11 10 -24 10 -14 0 -28
5 -31 10 -4 6 5 10 19 10 14 0 26 5 26 10 0 6 -9 10 -20 10 -12 0 -20 7 -20
16 0 12 7 15 25 12 17 -4 25 -1 25 8 0 10 -13 14 -40 14 l-40 0 0 -55z"/>
<path d="M1522 318 c-17 -17 -15 -73 2 -87 18 -15 68 -10 74 7 3 9 -4 12 -23
10 -37 -4 -57 25 -33 48 14 14 20 15 32 5 16 -13 32 1 21 19 -9 14 -58 13 -73
-2z"/>
<path d="M1630 275 c0 -42 3 -55 15 -55 8 0 15 9 15 20 0 13 7 20 20 20 13 0
20 -7 20 -20 0 -11 7 -20 15 -20 12 0 15 13 15 55 0 42 -3 55 -15 55 -9 0 -15
-9 -15 -25 0 -18 -5 -25 -20 -25 -15 0 -20 7 -20 25 0 16 -6 25 -15 25 -12 0
-15 -13 -15 -55z"/>
<path d="M983 264 c7 -7 169 -5 176 2 2 2 -38 4 -89 4 -51 0 -90 -3 -87 -6z"/>
<path d="M1860 263 c0 -5 26 -7 57 -5 101 5 111 9 26 11 -46 0 -83 -2 -83 -6z"/>
</g>
</svg>
